<svg id="visual" viewBox="0 0 960 540" width="960" height="540" xmlns="http://www.w3.org/2000/svg" xmlns:xlink="http://www.w3.org/1999/xlink" version="1.1"><rect x="0" y="0" width="960" height="540" fill="#2E3440"></rect><defs><linearGradient id="grad1_0" x1="43.8%" y1="0%" x2="100%" y2="100%"><stop offset="14.444444444444446%" stop-color="#4c566a" stop-opacity="1"></stop><stop offset="85.55555555555554%" stop-color="#4c566a" stop-opacity="1"></stop></linearGradient></defs><defs><linearGradient id="grad1_1" x1="43.8%" y1="0%" x2="100%" y2="100%"><stop offset="14.444444444444446%" stop-color="#4c566a" stop-opacity="1"></stop><stop offset="85.55555555555554%" stop-color="#464f61" stop-opacity="1"></stop></linearGradient></defs><defs><linearGradient id="grad1_2" x1="43.8%" y1="0%" x2="100%" y2="100%"><stop offset="14.444444444444446%" stop-color="#404859" stop-opacity="1"></stop><stop offset="85.55555555555554%" stop-color="#464f61" stop-opacity="1"></stop></linearGradient></defs><defs><linearGradient id="grad1_3" x1="43.8%" y1="0%" x2="100%" y2="100%"><stop offset="14.444444444444446%" stop-color="#404859" stop-opacity="1"></stop><stop offset="85.55555555555554%" stop-color="#3a4150" stop-opacity="1"></stop></linearGradient></defs><defs><linearGradient id="grad1_4" x1="43.8%" y1="0%" x2="100%" y2="100%"><stop offset="14.444444444444446%" stop-color="#343b48" stop-opacity="1"></stop><stop offset="85.55555555555554%" stop-color="#3a4150" stop-opacity="1"></stop></linearGradient></defs><defs><linearGradient id="grad1_5" x1="43.8%" y1="0%" x2="100%" y2="100%"><stop offset="14.444444444444446%" stop-color="#343b48" stop-opacity="1"></stop><stop offset="85.55555555555554%" stop-color="#2e3440" stop-opacity="1"></stop></linearGradient></defs><defs><linearGradient id="grad2_0" x1="0%" y1="0%" x2="56.3%" y2="100%"><stop offset="14.444444444444446%" stop-color="#4c566a" stop-opacity="1"></stop><stop offset="85.55555555555554%" stop-color="#4c566a" stop-opacity="1"></stop></linearGradient></defs><defs><linearGradient id="grad2_1" x1="0%" y1="0%" x2="56.3%" y2="100%"><stop offset="14.444444444444446%" stop-color="#464f61" stop-opacity="1"></stop><stop offset="85.55555555555554%" stop-color="#4c566a" stop-opacity="1"></stop></linearGradient></defs><defs><linearGradient id="grad2_2" x1="0%" y1="0%" x2="56.3%" y2="100%"><stop offset="14.444444444444446%" stop-color="#464f61" stop-opacity="1"></stop><stop offset="85.55555555555554%" stop-color="#404859" stop-opacity="1"></stop></linearGradient></defs><defs><linearGradient id="grad2_3" x1="0%" y1="0%" x2="56.3%" y2="100%"><stop offset="14.444444444444446%" stop-color="#3a4150" stop-opacity="1"></stop><stop offset="85.55555555555554%" stop-color="#404859" stop-opacity="1"></stop></linearGradient></defs><defs><linearGradient id="grad2_4" x1="0%" y1="0%" x2="56.3%" y2="100%"><stop offset="14.444444444444446%" stop-color="#3a4150" stop-opacity="1"></stop><stop offset="85.55555555555554%" stop-color="#343b48" stop-opacity="1"></stop></linearGradient></defs><defs><linearGradient id="grad2_5" x1="0%" y1="0%" x2="56.3%" y2="100%"><stop offset="14.444444444444446%" stop-color="#2e3440" stop-opacity="1"></stop><stop offset="85.55555555555554%" stop-color="#343b48" stop-opacity="1"></stop></linearGradient></defs><g transform="translate(960, 0)"><path d="M0 372C-46.9 403.7 -93.7 435.5 -141.8 436.5C-189.9 437.6 -239.3 407.9 -263.9 363.2C-288.6 318.6 -288.6 259 -297.7 216.3C-306.9 173.6 -325.1 147.9 -352.8 114.6C-380.6 81.4 -417.8 40.7 -455 0L0 0Z" fill="#313744"></path><path d="M0 310C-39.1 336.5 -78.1 362.9 -118.2 363.8C-158.3 364.6 -199.4 339.9 -219.9 302.7C-240.5 265.5 -240.5 215.8 -248.1 180.3C-255.7 144.7 -270.9 123.2 -294 95.5C-317.1 67.8 -348.2 33.9 -379.2 0L0 0Z" fill="#373e4c"></path><path d="M0 248C-31.2 269.2 -62.5 290.3 -94.6 291C-126.6 291.7 -159.5 271.9 -175.9 242.2C-192.4 212.4 -192.4 172.7 -198.5 144.2C-204.6 115.7 -216.7 98.6 -235.2 76.4C-253.7 54.3 -278.5 27.1 -303.3 0L0 0Z" fill="#3d4555"></path><path d="M0 186C-23.4 201.9 -46.9 217.7 -70.9 218.3C-95 218.8 -119.6 203.9 -132 181.6C-144.3 159.3 -144.3 129.5 -148.9 108.2C-153.4 86.8 -162.6 73.9 -176.4 57.3C-190.3 40.7 -208.9 20.4 -227.5 0L0 0Z" fill="#434c5d"></path><path d="M0 124C-15.6 134.6 -31.2 145.2 -47.3 145.5C-63.3 145.9 -79.8 136 -88 121.1C-96.2 106.2 -96.2 86.3 -99.2 72.1C-102.3 57.9 -108.4 49.3 -117.6 38.2C-126.9 27.1 -139.3 13.6 -151.7 0L0 0Z" fill="#495266"></path><path d="M0 62C-7.8 67.3 -15.6 72.6 -23.6 72.8C-31.7 72.9 -39.9 68 -44 60.5C-48.1 53.1 -48.1 43.2 -49.6 36.1C-51.1 28.9 -54.2 24.6 -58.8 19.1C-63.4 13.6 -69.6 6.8 -75.8 0L0 0Z" fill="#4c566a"></path></g><g transform="translate(0, 540)"><path d="M0 -393C50.8 -416.3 101.7 -439.7 136.9 -421.3C172.1 -403 191.7 -343 226.9 -312.3C262.1 -281.6 312.9 -280.2 353.5 -256.9C394.2 -233.5 424.7 -188.3 436.5 -141.8C448.4 -95.4 441.7 -47.7 435 0L0 0Z" fill="#313744"></path><path d="M0 -327.5C42.4 -346.9 84.7 -366.4 114.1 -351.1C143.4 -335.8 159.7 -285.8 189.1 -260.2C218.4 -234.7 260.7 -233.5 294.6 -214.1C328.5 -194.6 353.9 -156.9 363.8 -118.2C373.7 -79.5 368.1 -39.7 362.5 0L0 0Z" fill="#373e4c"></path><path d="M0 -262C33.9 -277.6 67.8 -293.1 91.3 -280.9C114.7 -268.7 127.8 -228.7 151.3 -208.2C174.7 -187.7 208.6 -186.8 235.7 -171.2C262.8 -155.7 283.1 -125.5 291 -94.6C298.9 -63.6 294.5 -31.8 290 0L0 0Z" fill="#3d4555"></path><path d="M0 -196.5C25.4 -208.2 50.8 -219.8 68.4 -210.7C86.1 -201.5 95.8 -171.5 113.4 -156.1C131 -140.8 156.4 -140.1 176.8 -128.4C197.1 -116.8 212.3 -94.2 218.3 -70.9C224.2 -47.7 220.9 -23.8 217.5 0L0 0Z" fill="#434c5d"></path><path d="M0 -131C16.9 -138.8 33.9 -146.6 45.6 -140.4C57.4 -134.3 63.9 -114.3 75.6 -104.1C87.4 -93.9 104.3 -93.4 117.8 -85.6C131.4 -77.8 141.6 -62.8 145.5 -47.3C149.5 -31.8 147.2 -15.9 145 0L0 0Z" fill="#495266"></path><path d="M0 -65.5C8.5 -69.4 16.9 -73.3 22.8 -70.2C28.7 -67.2 31.9 -57.2 37.8 -52C43.7 -46.9 52.1 -46.7 58.9 -42.8C65.7 -38.9 70.8 -31.4 72.8 -23.6C74.7 -15.9 73.6 -7.9 72.5 0L0 0Z" fill="#4c566a"></path></g></svg>