<svg xmlns="http://www.w3.org/2000/svg" height="48" viewBox="0 -960 960 960" width="48"><path d="M938-418.472q0 61.434-37.5 93.453Q863-293 818-290q-18.417 0-36.833-7.833Q762.75-305.667 751-321L468-604q0-46 21.78-95 21.781-49 73.22-82 7.636-6.469 11.818-15.641 4.182-9.173 3.182-18.48Q578-827 567.979-836.5 557.958-846 542-846q-46 0-102.5 20T384-746.938q0 20.286 5.722 39.112T407-666L297-774q10-68 71-116t174-48q60.702 0 94.351 38.151Q670-861.697 670-816q0 31.632-11.5 58.316T613-705q-25.694 18.931-39.847 44.466Q559-635 557-607q-.333-.667-2.196-.133-1.863.533-4.856-.867L671-655q19-6 36.919-10.5 17.918-4.5 37.732-4.5 95.871 0 144.11 78.02Q938-513.959 938-418.472ZM845-28 670-204q-6 72-69.095 126T418-24q-62.279 0-94.639-36.525Q291-97.05 291-148.247q0-30.765 13.255-59.944Q317.511-237.369 348-257q19.49-13.379 34.245-35.19Q397-314 405-353q1 2 2.294 1.5t3.758 1.5L290-307q-20.959 6-39.77 11-18.811 5-38.346 5-74.948 0-131.416-63.694Q24-418.389 24-542q0-61.038 36-94.519Q96-670 144.522-670 168-670 192-663.5t40 20.5L25-848l49-49L894-77l-49 49Zm-33.494-355q13.599 0 24.046-7.958Q846-398.917 846-418q0-44.714-20.648-101.784Q804.704-576.853 746-578q-10-1-20 1.5t-17 6.5l-94 32q4.2 5.474 8.6 19.737Q628-504 628-496q48 11.698 85.875 36.703Q751.75-434.293 776-397q5.2 9.727 15.211 11.864Q801.222-383 811.506-383Zm-599.768 0q11.684 0 21.738-2T252-391l92-32q-5-10-9-22t-2-20q-49-10-89-35t-68-68q-.6-3.727-10.755-6.864Q155.091-578 146.636-578 131-578 123-569.5t-8 27.5q0 63.553 24.533 111.777Q164.066-382 211.738-383ZM418-115q70 0 114-29.5t46-74.5q0-21-7.611-44.833Q562.778-287.667 548-315l-48-46q-8.924 51.76-30.765 100.341Q447.394-212.079 399-180q-6 4.846-11 13.485-5 8.64-5 19.015-1.231 15.65 8.885 24.075Q402-115 418-115Zm210-381Zm-295 31Zm167 104Zm-32-243Z"/></svg>