<svg xmlns="http://www.w3.org/2000/svg" height="48" viewBox="0 -960 960 960" width="48"><path d="M418-24q-62.279 0-94.639-36.525Q291-97.05 291-148.247q0-30.765 13.255-59.944Q317.511-237.369 348-257q19.49-13.379 34.245-35.19Q397-314 405-352.679q1 1.679 3 1.679t3.052 1L290-307q-20.959 6-39.77 11-18.811 5-38.346 5-74.948 0-131.416-63.694Q24-418.389 24-542q0-62.51 36.343-95.255Q96.687-670 145.5-670q31.196 0 61.432 13.255Q237.169-643.489 257-613q12.931 20.694 36.466 37.347Q317-559 353-556q-1.333 2-1.167 3 .167 1-1.833 3.052l-42.846-119.584Q300-689.947 295.5-707.741q-4.5-17.795-4.5-37.69 0-76.398 63.639-134.483Q418.279-938 542-938q60.702 0 94.351 38.151Q670-861.697 670-816q0 32-14.021 62.727Q641.957-722.545 613-705q-25.694 17.931-39.847 43.966Q559-635 557-607q-2 0-3.5-.5t-3.552-1.5L671-655q19-5 36.919-10 17.918-5 37.732-5 95.871 0 144.11 78.167Q938-513.667 938-418q0 62.231-39.289 94.615Q859.422-291 811.539-291q-31.539 0-60.174-14.021Q722.73-319.043 705-348q-14.621-19.939-36.81-35.469Q646-399 608-406q0-1-.1-1.441-.1-.441 1.1-2.611L654-290q6.429 17.338 11.214 36.144Q670-235.049 670-217.235q0 76.296-63.864 134.765Q542.272-24 418-24Zm62.353-401q22.172 0 38.909-16.341Q536-457.681 536-480.353q0-22.172-16.62-38.909Q502.76-536 480.588-536q-22.171 0-38.88 16.62Q425-502.76 425-480.588q0 22.171 16.341 38.88Q457.681-425 480.353-425Zm-57.08-191q7.727-4 18.622-7.5Q452.789-627 465-628q10-42 31.951-83.125t66.406-70.161q6.916-3.532 10.779-12.587Q578-802.928 578-813.26q0-13.687-8.5-23.214Q561-846 542-846q-46 0-102.459 21.697T383-746.453q0 10.529 2 20.991T390.931-709l32.342 93ZM212.31-383q14.354 0 39.69-8l92-32q-5-10-9-22t-2-20q-49-10-88.5-33.5T181-561q-6.567-7.545-16.364-12.273Q154.84-578 146.815-578q-15.334 0-23.574 8.5Q115-561 115-542q0 63.508 24.679 111.754Q164.359-382 212.31-383ZM418-115q50.785 0 104.392-22.409Q576-159.817 578-213.846q0-12.154-2.857-19.804-2.857-7.65-5.867-18.387L538-344q-10 5-21.5 8.5t-20.5 2.477Q484-283 459.872-243.625 435.744-204.25 399-180q-7.5 3.882-12.25 13.941Q382-156 383-146.733q.182 13.133 8.743 22.433T418-115Zm393.8-268q14.07 0 24.135-8.042Q846-399.083 846-418q0-45.578-21.185-101.263Q803.63-574.949 746.69-578q-13.69 0-23.038 1.833Q714.304-574.333 709-570l-94 32q4.2 5.474 8.6 19.737Q628-504 628-496q48 11.698 87.5 34.849Q755-438 780-400q3.6 8.727 12.633 12.864Q801.667-383 811.8-383ZM628-496ZM465-628ZM333-465Zm163 132Z"/></svg>