<svg fill="#eceff4" xmlns="http://www.w3.org/2000/svg" height="48" viewBox="0 -960 960 960" width="48"><path d="M407.174-325.19q22.718 23.19 66.772 21.69T537-336l234-357-353 237q-30 19-32 63.551-2 44.55 21.174 67.259ZM477.736-822q61.091 0 130.885 21Q678.416-780 735-735l-81 59q-45-29-92-41.5T477.339-730q-135.833 0-232.086 96.984Q149-536.032 149-396.365 149-351 160.5-308.5 172-266 193.927-229H760.84q20.683-35.95 32.921-79.3Q806-351.651 806-398q0-39-10-85t-42-86l61-80q41.154 58.85 60.577 121.925Q895-464 898-403.5q2 61.438-13.018 118.29Q869.964-228.358 841-182q-17 28-34.339 36T762-138H193q-24.136 0-45.568-12T115-182q-28-47-42.5-101.475Q58-337.95 58-396.79 58-484 91.057-560.207q33.056-76.206 90.089-134.913 57.033-58.706 134.623-92.793Q393.36-822 477.736-822ZM482-481Z"/></svg>