<svg xmlns="http://www.w3.org/2000/svg" height="48" viewBox="0 -960 960 960" width="48"><path d="M189-139q-70 0-118.805-48.356Q21.391-235.711 21-306.949q0-8.69.5-19.977T26-348l84-337q16.174-60.463 65.515-98.731Q224.855-822 285-822h390q60.145 0 109.485 38.269Q833.826-745.463 852-685l84 336q2 10.735 3.5 21.53 1.5 10.796 1.5 21.444 0 70.951-49.984 118.989Q841.032-139 771.062-139 722-139 681-164.5T619-233l-28-58q-1-4-5.758-6T575-299H385q-5.484 0-10.242 2-4.758 2-5.758 6l-28 58q-21 43-62.237 68.5T189-139Zm2.663-91q22.397 0 40.034-11.473Q249.333-252.946 259-272l28-57q12.645-28.045 39.192-44.523Q352.738-390 385-390h190q32.185 0 58.167 17.091Q659.148-355.818 675-329l28 57q8.667 19.054 26.303 30.527Q746.94-230 769.585-230q32.159 0 55.384-21.3Q848.193-272.6 849-305q0-9-3-22l-84-335q-7.818-27.574-31.773-48.287Q706.273-731 675-731H285q-30.522 0-55.352 20.148Q204.818-690.705 199-662l-84 335q1 0-3 21 0 33.121 23.366 55.061Q158.731-229 191.663-230Zm348.512-300q12.825 0 21.325-8.675 8.5-8.676 8.5-21.5 0-12.825-8.675-21.325-8.676-8.5-21.5-8.5-12.825 0-21.325 8.675-8.5 8.676-8.5 21.5 0 12.825 8.675 21.325 8.676 8.5 21.5 8.5Zm80-80q12.825 0 21.325-8.675 8.5-8.676 8.5-21.5 0-12.825-8.675-21.325-8.676-8.5-21.5-8.5-12.825 0-21.325 8.675-8.5 8.676-8.5 21.5 0 12.825 8.675 21.325 8.676 8.5 21.5 8.5Zm0 160q12.825 0 21.325-8.675 8.5-8.676 8.5-21.5 0-12.825-8.675-21.325-8.676-8.5-21.5-8.5-12.825 0-21.325 8.675-8.5 8.676-8.5 21.5 0 12.825 8.675 21.325 8.676 8.5 21.5 8.5Zm80-80q12.825 0 21.325-8.675 8.5-8.676 8.5-21.5 0-12.825-8.675-21.325-8.676-8.5-21.5-8.5-12.825 0-21.325 8.675-8.5 8.676-8.5 21.5 0 12.825 8.675 21.325 8.676 8.5 21.5 8.5Zm-360.059 65Q351-465 358-472.083q7-7.084 7-17.917v-45h45q10.833 0 17.917-7.116 7.083-7.117 7.083-18Q435-571 427.917-578q-7.084-7-17.917-7h-45v-45q0-10.833-7.116-17.917-7.117-7.083-18-7.083Q329-655 322-647.917q-7 7.084-7 17.917v45h-45q-10.833 0-17.917 7.116-7.083 7.117-7.083 18Q245-549 252.083-542q7.084 7 17.917 7h45v45q0 10.833 7.116 17.917 7.117 7.083 18 7.083ZM480-480Z"/></svg>