<svg xmlns="http://www.w3.org/2000/svg" height="48" viewBox="0 -960 960 960" width="48"><path d="M479.866-102q-85.036 0-143.451-58.36Q278-218.72 278-304q0-52.099 23.5-95.55Q325-443 368-473.922V-746q0-48.75 31.147-81.375T479.824-860q49.529 0 81.853 32.625Q594-794.75 594-746v272.078Q635-443 659.5-399.55 684-356.099 683-304q0 85.28-59.257 143.64Q564.486-102 479.866-102Zm-.013-90Q528-192 559.5-224.333q31.5-32.333 31.5-79.808 0-39.074-19-73.467Q553-412 514-424l-12-1v-321q0-8.65-6.508-15.325Q488.983-768 479.667-768q-9.292 0-14.979 6.675Q459-754.65 459-746v321l-13 1q-39 12-58 46.219-19 34.22-19 73.494 0 48.787 31.728 80.537Q432.456-192 479.853-192ZM480-304Z"/></svg>