<svg xmlns="http://www.w3.org/2000/svg" height="48" viewBox="0 -960 960 960" width="48"><path d="M481-212q17.828-.1 29.914-8.295Q523-228.49 523-241.163q0-14.023-10.5-21.93T480.255-271Q433-271 399-297q-34-26-45-81-1.895-9.12-9.447-17.56Q337-404 324-404q-16.938 0-23.969 10.1Q293-383.8 295-371q15.119 85 71.228 122Q422.337-212 481-212Zm-1.007 153Q333.66-59 235.83-159.052 138-259.105 138-408.157q0-104.753 84.5-228.798T480-909q173 148 258 272.108t85 228.716q0 148.847-98.337 249.011Q626.327-59 479.993-59Zm-.249-91Q587-150 659-223.722t72-184.505Q731-482 666.506-577.5 602.011-673 480.006-787 358-673 293.5-577.033 229-481.066 229-407.653q0 110.256 71.744 183.954Q372.488-150 479.744-150ZM480-484Z"/></svg>