<svg fill="#eceff4" xmlns="http://www.w3.org/2000/svg" height="48" viewBox="0 -960 960 960" width="48"><path d="M702-96 430-369q-21 9-40.82 12-19.821 3-46.18 3-106.75 0-180.375-74.208Q89-502.417 89-607q0-32.436 10.658-67.106Q110.316-708.777 125-737l149.33 150L368-675 215-828q25.915-14.158 61.418-26.079Q311.921-866 343-866q108.333 0 183.167 75.292Q601-715.417 601-607q0 23.203-3 44.602Q595-541 586-519l273 271q19 19.522 19 42.935 0 23.413-19 40.94L785-96q-16.478 17-41.239 17Q719-79 702-96Zm44-70 41-41-297-296q16-22 24-49.5t8-54.5q0-75.624-56.5-128.312Q409-788 338-789l101 103q10 10 10 23t-9 23L309-517q-10 10-23.455 10-13.454 0-22.545-10l-98-97q3 79 55.668 129.5T343.395-434q24.605 0 52.393-8 27.787-8 49.212-24l301 300ZM477-477Z"/></svg>